<svg xmlns="http://www.w3.org/2000/svg" viewBox="0 0 24 24" fill="none">
  <path fill="#7c3aed" d="M12 2c-1.1 0-2 .9-2 2v1.1C7.06 5.56 5 8.03 5 11c0 3.31 2.69 6 6 6 .55 0 1-.45 1-1v-1.17c1.72-.48 3-2.03 3-3.9V8.5h1.5c.83 0 1.5-.67 1.5-1.5S17.33 5.5 16.5 5.5H15V4c0-1.1-.9-2-2-2z"/>
  <path fill="#a78bfa" d="M8 18.5c0 1.38 1.12 2.5 2.5 2.5h3c1.38 0 2.5-1.12 2.5-2.5v-1H8v1z"/>
  <path fill="#fff" d="M10.5 9.25 8.75 11l1.75 1.75 1.06-1.06-.69-.69H14v-1.5h-4.13l.69-.69L10.5 9.25zm3 0 1.75 1.75-1.75 1.75-1.06-1.06.69-.69H10v-1.5h3.13l-.69-.69 1.06-1.06z"/>
</svg>
