<svg width="64" height="53" viewBox="0 0 64 53" fill="none" xmlns="http://www.w3.org/2000/svg">
<g clip-path="url(#clip0_12523_2)">
<path d="M37.4451 43.7394C35.5752 42.3276 32.8017 41.3596 30.0102 41.3596C26.8547 41.3596 23.7431 42.2909 20.2024 45.8502C16.2457 49.7527 10.271 53.1251 2.70346 52.9555C1.79012 52.9348 0.88773 52.9071 -0.000488281 52.8117L4.35172 44.9764L4.35236 44.9757C7.13488 42.5069 10.3425 39.644 11.5785 38.8327C13.6609 37.468 18.618 34.095 26.4625 36.3742C26.894 36.5 27.1588 36.6064 27.627 36.7767C31.2933 38.111 37.2087 43.455 37.4444 43.7387L37.4451 43.7394Z" fill="url(#paint0_linear_12523_2)"/>
<path d="M21.1377 28.3326C23.6394 28.2262 25.8634 28.7622 27.8776 29.6934C31.395 31.3174 34.1382 33.9816 36.0119 35.9919C37.8483 37.9615 40.7822 41.2494 43.45 43.7317C46.0941 46.1921 50.4785 50.2771 55.9418 52.546C57.067 53.0129 57.2338 52.9452 57.3968 53.0013C51.4157 50.9704 46.7588 46.354 43.66 43.5995C40.9361 41.1791 38.3127 37.4842 36.2844 35.5378C34.365 33.6959 31.7576 30.755 28.2402 29.1304C26.2261 28.1991 23.8313 27.5942 21.3302 27.7109C17.4972 27.8896 13.0194 30.014 10.9061 33.4463C10.9061 33.4469 10.8236 33.5914 10.8236 33.5921L9.01758 36.493C11.7569 31.6734 15.885 28.5564 21.1377 28.3333V28.3326Z" fill="#8CF4FC"/>
<path d="M64.0002 52.9555C50.706 48.8944 39.8367 33.3883 39.8367 33.3883C39.8367 33.3883 34.8617 25.2789 27.763 23.5685C26.9585 23.375 25.8268 23.186 25.0114 23.1835C19.6112 23.1641 16.5724 25.315 14.3457 27.44L22.2804 13.4321L28.7201 2.06189L28.9881 1.58916C29.4976 0.850709 30.2473 0.0297086 31.9143 4.16305e-05C33.5541 -0.0283354 34.5506 1.08998 34.881 1.67429L35.1193 2.01546C35.1193 2.01546 35.12 2.0161 35.12 2.01739L64.0002 52.9555Z" fill="#2463EB"/>
<path d="M57.0336 52.9555C52.3136 52.9349 48.5108 50.6673 45.879 49.4471C43.5647 48.3739 40.1896 45.7233 37.6351 43.9C37.6338 43.8994 31.1 37.6442 26.4632 36.3749C18.5845 34.2183 13.6616 37.4681 11.5792 38.8334C10.3432 39.6448 7.13555 42.507 4.35303 44.9764L8.80764 36.8341C8.80764 36.8341 8.80764 36.8328 8.80829 36.8322C10.8346 33.3876 14.3845 28.6619 21.1371 28.3333C23.6381 28.2115 25.8628 28.7628 27.877 29.6941C31.3944 31.318 34.1795 34.0629 36.0113 35.9925C37.9295 38.0124 47.9524 49.9231 57.0329 52.9568L57.0336 52.9555Z" fill="url(#paint1_linear_12523_2)"/>
</g>
<defs>
<linearGradient id="paint0_linear_12523_2" x1="36.0932" y1="48.9877" x2="-4.5715" y2="52.3156" gradientUnits="userSpaceOnUse">
<stop stop-color="#3FBDFF"/>
<stop offset="0.77" stop-color="#1A23C9"/>
</linearGradient>
<linearGradient id="paint1_linear_12523_2" x1="4.35303" y1="40.6238" x2="57.0336" y2="40.6238" gradientUnits="userSpaceOnUse">
<stop stop-color="#2F5DF7"/>
<stop offset="1" stop-color="#5BCDFD"/>
</linearGradient>
<clipPath id="clip0_12523_2">
<rect width="64" height="53" fill="white"/>
</clipPath>
</defs>
</svg>