<svg width="256" height="211" viewBox="0 0 256 211" fill="none" xmlns="http://www.w3.org/2000/svg">
<path d="M149.782 174.134C142.303 168.514 131.209 164.66 120.043 164.66C107.421 164.66 94.9743 168.368 80.8117 182.538C64.9848 198.074 41.086 211.5 10.8158 210.825C7.16242 210.743 3.55287 210.632 0 210.252L17.4088 179.059L17.4114 179.056C28.5415 169.228 41.372 157.83 46.3162 154.6C54.6457 149.167 74.4738 135.739 105.852 144.813C107.578 145.314 108.637 145.737 110.51 146.415C125.175 151.727 148.837 173.002 149.78 174.132L149.782 174.134Z" fill="url(#paint0_linear_12523_2)"/>
<path d="M84.5526 112.798C94.5594 112.374 103.456 114.508 111.512 118.215C125.582 124.681 136.555 135.287 144.05 143.29C151.395 151.132 163.131 164.221 173.802 174.104C184.378 183.899 201.916 200.162 223.769 209.195C228.27 211.053 228.937 210.784 229.589 211.007C205.665 202.922 187.037 184.543 174.642 173.577C163.746 163.941 153.253 149.232 145.14 141.483C137.462 134.15 127.032 122.442 112.963 115.974C104.906 112.266 95.3272 109.858 85.323 110.323C69.9907 111.034 52.0795 119.492 43.6263 133.156C43.6263 133.159 43.2965 133.734 43.2965 133.736L36.0723 145.285C47.0297 126.098 63.542 113.689 84.5526 112.8V112.798Z" fill="#8CF4FC"/>
<path d="M256.002 210.825C202.825 194.657 159.348 132.925 159.348 132.925C159.348 132.925 139.448 100.64 111.054 93.8312C107.836 93.061 103.309 92.3087 100.047 92.2984C78.4464 92.2214 66.2909 100.784 57.3843 109.244L89.1231 53.4768L114.882 8.21062L115.954 6.32859C117.992 3.38873 120.991 0.120218 127.658 0.00210965C134.218 -0.110863 138.204 4.3413 139.525 6.66751L140.479 8.02575C140.479 8.02575 140.481 8.02832 140.481 8.03346L256.002 210.825Z" fill="#2463EB"/>
<path d="M228.136 210.825C209.256 210.743 194.045 201.715 183.518 196.857C174.261 192.585 160.76 182.032 150.542 174.774C150.537 174.771 124.402 149.868 105.855 144.815C74.3399 136.229 54.6484 149.167 46.3188 154.603C41.3747 157.833 28.5442 169.228 17.4141 179.059L35.2325 146.643C35.2325 146.643 35.2325 146.638 35.2351 146.636C43.3405 132.922 57.5401 114.109 84.5502 112.8C94.5544 112.316 103.453 114.51 111.51 118.218C125.58 124.683 136.72 135.611 144.047 143.293C151.72 151.334 191.811 198.752 228.134 210.83L228.136 210.825Z" fill="url(#paint1_linear_12523_2)"/>
<defs>
<linearGradient id="paint0_linear_12523_2" x1="144.375" y1="195.029" x2="-18.2737" y2="208.403" gradientUnits="userSpaceOnUse">
<stop stop-color="#3FBDFF"/>
<stop offset="0.77" stop-color="#1A23C9"/>
</linearGradient>
<linearGradient id="paint1_linear_12523_2" x1="17.4141" y1="161.73" x2="228.136" y2="161.73" gradientUnits="userSpaceOnUse">
<stop stop-color="#2F5DF7"/>
<stop offset="1" stop-color="#5BCDFD"/>
</linearGradient>
</defs>
</svg>
