<svg width="514" height="115" viewBox="0 0 514 115" fill="none" xmlns="http://www.w3.org/2000/svg">
<g clip-path="url(#clip0_12526_10)">
<path d="M81.9107 94.9063C77.8204 91.843 71.7534 89.7425 65.6469 89.7425C58.7443 89.7425 51.9376 91.7632 44.1924 99.4864C35.5371 107.954 22.4675 115.271 5.91341 114.903C3.91549 114.859 1.94151 114.799 -0.00146484 114.591L9.51898 97.5903L9.52039 97.5889C15.6072 92.232 22.6239 86.0202 25.3277 84.2597C29.8829 81.2986 40.7264 73.9799 57.8863 78.9253C58.8303 79.1982 59.4094 79.4291 60.4337 79.7985C68.4536 82.6938 81.3936 94.2891 81.9093 94.9049L81.9107 94.9063Z" fill="url(#paint0_linear_12526_10)"/>
<path d="M46.2383 61.4763C51.7107 61.2454 56.5759 62.4083 60.9818 64.429C68.6762 67.9527 74.677 73.7335 78.7757 78.0954C82.7927 82.3691 89.2106 89.5032 95.0466 94.8894C100.83 100.228 110.421 109.092 122.372 114.015C124.834 115.028 125.199 114.881 125.555 115.003C112.471 110.596 102.284 100.579 95.5059 94.6026C89.5474 89.3507 83.8086 81.3336 79.3717 77.1103C75.173 73.1136 69.4695 66.7324 61.775 63.2074C57.3692 61.1867 52.1306 59.874 46.6596 60.1273C38.2747 60.515 28.4795 65.1245 23.8567 72.572C23.8567 72.5734 23.6764 72.8869 23.6764 72.8883L19.7256 79.1827C25.718 68.7251 34.7481 61.9619 46.2383 61.4777V61.4763Z" fill="#8CF4FC"/>
<path d="M140 114.903C110.919 106.092 87.1425 72.4461 87.1425 72.4461C87.1425 72.4461 76.2595 54.8503 60.7312 51.1391C58.9714 50.7193 56.4958 50.3093 54.7121 50.3037C42.8992 50.2617 36.2517 54.9286 31.3809 59.5396L48.738 29.145L62.825 4.47382L63.4111 3.44807C64.5256 1.84578 66.1656 0.0643618 69.8121 -9.85945e-06C73.3993 -0.0615828 75.579 2.36495 76.3018 3.63279L76.8231 4.37307C76.8231 4.37307 76.8245 4.37447 76.8245 4.37726L140 114.903Z" fill="#2463EB"/>
<path d="M124.761 114.903C114.436 114.859 106.117 109.938 100.36 107.291C95.2976 104.962 87.9145 99.2108 82.3265 95.2547C82.3237 95.2533 68.0311 81.6807 57.8879 78.9267C40.6533 74.2472 29.8845 81.2987 25.3293 84.2611C22.6254 86.0216 15.6087 92.232 9.52197 97.5903L19.2664 79.9231C19.2664 79.9231 19.2664 79.9203 19.2679 79.9189C23.7005 72.4447 30.3931 62.7974 46.2371 61.4778C51.6954 61.023 56.5747 62.4098 60.9806 64.4305C68.675 67.9541 74.7674 73.9099 78.7745 78.0969C82.9704 82.4797 104.896 108.324 124.759 114.906L124.761 114.903Z" fill="url(#paint1_linear_12526_10)"/>
</g>
<circle cx="407.682" cy="67.2247" r="2.50134" fill="#D9D9D9"/>
<circle cx="426.58" cy="67.2247" r="2.50134" fill="#D9D9D9"/>
<path d="M220.052 81.5684H178.687L172.041 97.1532H154.854L190.834 16.9435H208.135L244.002 97.1532H226.698L220.052 81.5684ZM184.532 67.5888H214.324L199.427 32.6398L184.529 67.5888H184.532Z" fill="black"/>
<path d="M296.712 83.4011V97.1507H247.096V91.6499L273.91 53.9505H249.159V40.5447H296.255V45.7017L269.557 83.4011H296.715H296.712Z" fill="black"/>
<path d="M306.566 24.848C306.566 19.5772 310.462 15.9092 315.849 15.9092C321.236 15.9092 325.245 19.5748 325.245 24.848C325.245 30.1211 321.236 33.5568 315.849 33.5568C310.462 33.5568 306.566 29.8912 306.566 24.848ZM308.171 40.5471H323.412V97.1531H308.171V40.5471Z" fill="black"/>
<path d="M382.88 44.5564L376.234 56.3594C373.026 54.1828 370.276 53.3814 367.068 53.3814C358.703 53.3814 353.318 59.226 353.318 69.5376V97.153H338.077V40.547H351.255L352.517 47.6506C356.872 41.806 362.257 39.3994 368.445 39.3994C373.716 39.3994 379.217 41.1184 382.883 44.5564H382.88Z" fill="black"/>
<path d="M513.854 65.5258V97.1506H498.613V66.441C498.613 57.7322 493.916 52.6914 486.352 52.6914C478.101 52.6914 472.602 58.7636 472.602 67.4724V97.1506H457.361V40.5446H470.54L471.571 47.0768C476.04 42.1498 482.686 39.3994 490.134 39.3994C504.571 39.3994 513.854 49.4834 513.854 65.5258Z" fill="black"/>
<path d="M415.447 39.4501C396.77 39.4501 384.854 51.7107 384.854 69.0145C384.854 86.3183 396.77 98.5789 415.447 98.5789C434.124 98.5789 446.043 86.3183 446.043 69.0145C446.043 51.7107 434.126 39.4501 415.447 39.4501ZM415.447 85.2845C404.431 85.2845 395.499 78.0007 395.499 69.0122C395.499 60.0236 404.412 52.7564 415.414 52.7421C415.426 52.7421 415.435 52.7421 415.447 52.7421C415.459 52.7421 415.468 52.7421 415.48 52.7421C426.482 52.7564 435.394 60.0354 435.394 69.0122C435.394 77.9889 426.463 85.2845 415.447 85.2845Z" fill="black"/>
<path d="M400.553 67.0473C400.553 63.3324 403.148 60.7501 406.731 60.7501C410.313 60.7501 412.984 63.3324 412.984 67.0473C412.984 70.7621 410.313 73.1808 406.731 73.1808C403.148 73.1808 400.553 70.5985 400.553 67.0473Z" fill="black"/>
<path d="M419.354 66.7473C419.354 63.0324 421.948 60.4501 425.531 60.4501C429.114 60.4501 431.784 63.0324 431.784 66.7473C431.784 70.4622 429.114 72.8808 425.531 72.8808C421.948 72.8808 419.354 70.2985 419.354 66.7473Z" fill="black"/>
<path d="M409.854 67.4091C409.854 68.7898 408.734 69.9091 407.354 69.9091C405.973 69.9091 404.854 68.7898 404.854 67.4091C404.854 66.0283 405.973 64.9091 407.354 64.9091C408.734 64.9091 409.854 66.0283 409.854 67.4091Z" fill="white"/>
<circle cx="425.354" cy="67.4091" r="2.5" fill="white"/>
<defs>
<linearGradient id="paint0_linear_12526_10" x1="78.9534" y1="106.294" x2="-9.99085" y2="113.632" gradientUnits="userSpaceOnUse">
<stop stop-color="#3FBDFF"/>
<stop offset="0.77" stop-color="#1A23C9"/>
</linearGradient>
<linearGradient id="paint1_linear_12526_10" x1="9.52197" y1="88.1458" x2="124.761" y2="88.1458" gradientUnits="userSpaceOnUse">
<stop stop-color="#2F5DF7"/>
<stop offset="1" stop-color="#5BCDFD"/>
</linearGradient>
<clipPath id="clip0_12526_10">
<rect width="140" height="115" fill="white"/>
</clipPath>
</defs>
</svg>