<svg xmlns="http://www.w3.org/2000/svg" viewBox="0 0 64 64" fill="none">
  <rect width="64" height="64" rx="14" fill="#F8FAFC"/>
  <path
    d="M32 11.5a9.5 9.5 0 0 1 8.22 4.73l1.15 1.98 2.27-.03A9.5 9.5 0 0 1 53 27.68a9.4 9.4 0 0 1-1.32 4.8l-1.13 1.92 1.13 1.92a9.5 9.5 0 0 1-8.05 14.28l-2.27-.03-1.15 1.98A9.5 9.5 0 0 1 23.79 52l-1.15-1.98-2.27.03A9.5 9.5 0 0 1 12.32 36.3l1.13-1.92-1.13-1.92A9.5 9.5 0 0 1 20.37 18.2l2.27.03 1.15-1.98A9.5 9.5 0 0 1 32 11.5Z"
    stroke="#111827"
    stroke-width="4"
    stroke-linejoin="round"
  />
  <path
    d="M25.3 20.7 38.6 28M25.3 43.3V28l13.3-7.3M25.3 43.3 38.6 36M38.6 20.7V36M25.3 20.7 32 32l6.6 11.3"
    stroke="#111827"
    stroke-width="4"
    stroke-linecap="round"
    stroke-linejoin="round"
  />
</svg>
